<svg width="35" height="35" viewBox="0 0 35 35" fill="none" xmlns="http://www.w3.org/2000/svg">
<g clip-path="url(#clip0_138_1690)">
<path d="M17.5 35C27.165 35 35 27.165 35 17.5C35 7.83502 27.165 0 17.5 0C7.83502 0 0 7.83502 0 17.5C0 27.165 7.83502 35 17.5 35Z" fill="#FF916E"/>
<path d="M23.1905 5.37109H19.3138C17.0133 5.37109 14.4544 6.33867 14.4544 9.67342C14.4656 10.8354 14.4544 11.9482 14.4544 13.2006H11.793V17.4357H14.5368V29.6279H19.5786V17.3552H22.9064L23.2075 13.1887H19.4917C19.4917 13.1887 19.5 11.3352 19.4917 10.797C19.4917 9.47917 20.863 9.55463 20.9454 9.55463C21.598 9.55463 22.8667 9.55654 23.1924 9.55463V5.37109H23.1905Z" fill="black"/>
</g>
<defs>
<clipPath id="clip0_138_1690">
<rect width="35" height="35" fill="white"/>
</clipPath>
</defs>
</svg>
