<svg width="30" height="30" viewBox="0 0 30 30" fill="none" xmlns="http://www.w3.org/2000/svg">
<path d="M21.3716 0.65704L0.65638 21.3752C0.235452 21.7987 -0.000561217 22.3717 1.00217e-06 22.9688C0.000563221 23.5658 0.237655 24.1384 0.65938 24.561L5.43658 29.3412C5.85944 29.7626 6.4319 29.9994 7.02886 30C7.62582 30.0006 8.19872 29.7648 8.62238 29.3442L29.3406 8.62604C29.7613 8.20233 29.9974 7.62947 29.9974 7.03239C29.9974 6.43531 29.7613 5.86245 29.3406 5.43874L24.5619 0.65704C24.1377 0.236166 23.5643 0 22.9667 0C22.3692 0 21.7958 0.236166 21.3716 0.65704ZM5.89255 22.9666L4.75412 24.1051L1.9103 21.2597L3.04873 20.1213L5.89255 22.9666ZM10.4463 22.9666L9.30784 24.1051L4.18566 18.9829L5.32409 17.843L10.4463 22.9666ZM10.4463 18.4129L9.30784 19.5514L6.46102 16.7075L7.60094 15.5676L10.4463 18.4129ZM12.7231 16.1361L11.5847 17.2745L8.74087 14.4307L9.8793 13.2907L12.7231 16.1361ZM17.2753 16.1361L16.1369 17.2745L11.0162 12.1538L12.1547 11.0154L17.2753 16.1361ZM17.2753 11.5839L16.1369 12.7223L13.2931 9.87846L14.4315 8.74003L17.2753 11.5839ZM19.5522 9.3085L18.4138 10.4469L15.5684 7.6016L16.7069 6.46318L19.5522 9.3085ZM24.1059 9.3085L22.966 10.4469L17.8453 5.32475L18.9837 4.18482L24.1059 9.3085ZM24.1044 4.75628L22.966 5.89471L20.1222 3.04789L21.2606 1.91096L24.1044 4.75628Z" fill="black"/>
</svg>
