<svg width="71" height="30" viewBox="0 0 71 30" fill="none" xmlns="http://www.w3.org/2000/svg">
<path d="M29.5979 20.992L26.2198 17.6139C26.6488 17.0241 26.9437 16.4204 27.1046 15.8027C27.2654 15.1871 27.3458 14.5576 27.3458 13.9142C27.3458 13.2708 27.2654 12.6402 27.1046 12.0225C26.9437 11.407 26.6488 10.8311 26.2198 10.2949L29.5979 6.83646C30.4558 7.85523 31.0992 8.98123 31.5282 10.2145C31.9571 11.4477 32.1716 12.681 32.1716 13.9142C32.1716 15.1475 31.9571 16.3668 31.5282 17.5721C31.0992 18.7796 30.4558 19.9196 29.5979 20.992ZM36.4343 27.9088L32.9759 24.4504C34.3164 22.9491 35.3223 21.2869 35.9936 19.4638C36.6627 17.6408 36.9973 15.7909 36.9973 13.9142C36.9973 12.0375 36.6627 10.2005 35.9936 8.40322C35.3223 6.60804 34.3164 4.95978 32.9759 3.45844L36.4343 0C38.2574 1.98391 39.6118 4.16836 40.4976 6.55335C41.3812 8.94048 41.8231 11.3941 41.8231 13.9142C41.8231 16.4343 41.3812 18.9008 40.4976 21.3137C39.6118 23.7265 38.2574 25.9249 36.4343 27.9088ZM12.8686 17.1314C11.0992 17.1314 9.58391 16.5008 8.32279 15.2397C7.06381 13.9807 6.43432 12.4665 6.43432 10.6971C6.43432 8.92761 7.06381 7.41233 8.32279 6.15121C9.58391 4.89222 11.0992 4.26273 12.8686 4.26273C14.6381 4.26273 16.1523 4.89222 17.4113 6.15121C18.6724 7.41233 19.3029 8.92761 19.3029 10.6971C19.3029 12.4665 18.6724 13.9807 17.4113 15.2397C16.1523 16.5008 14.6381 17.1314 12.8686 17.1314ZM0 30V28.1501C0 26.8633 0.348526 25.6836 1.04558 24.6113C1.74263 23.5389 2.70777 22.7346 3.94102 22.1984C5.33512 21.6086 6.7689 21.1528 8.24236 20.8311C9.71796 20.5094 11.2601 20.3485 12.8686 20.3485C14.4772 20.3485 16.0193 20.5094 17.4949 20.8311C18.9684 21.1528 20.4021 21.6086 21.7962 22.1984C23.0295 22.7346 23.9946 23.5389 24.6917 24.6113C25.3887 25.6836 25.7373 26.8633 25.7373 28.1501V30H0ZM57.9088 17.1314C56.1394 17.1314 54.6241 16.5008 53.363 15.2397C52.104 13.9807 51.4745 12.4665 51.4745 10.6971C51.4745 8.92761 52.104 7.41233 53.363 6.15121C54.6241 4.89222 56.1394 4.26273 57.9088 4.26273C59.6783 4.26273 61.1936 4.89222 62.4547 6.15121C63.7137 7.41233 64.3432 8.92761 64.3432 10.6971C64.3432 12.4665 63.7137 13.9807 62.4547 15.2397C61.1936 16.5008 59.6783 17.1314 57.9088 17.1314ZM45.0402 30V28.1501C45.0402 26.8633 45.3887 25.6836 46.0858 24.6113C46.7828 23.5389 47.748 22.7346 48.9812 22.1984C50.3753 21.6086 51.8091 21.1528 53.2826 20.8311C54.7582 20.5094 56.3003 20.3485 57.9088 20.3485C59.5174 20.3485 61.0595 20.5094 62.5351 20.8311C64.0086 21.1528 65.4424 21.6086 66.8365 22.1984C68.0697 22.7346 69.0349 23.5389 69.7319 24.6113C70.429 25.6836 70.7775 26.8633 70.7775 28.1501V30H45.0402Z" fill="black"/>
</svg>
