<svg width="37" height="30" viewBox="0 0 37 30" fill="none" xmlns="http://www.w3.org/2000/svg">
<path d="M33.3333 10C31.5 10 30 11.5 30 13.3333V20H6.66667V13.3333C6.66667 11.5 5.16667 10 3.33333 10C1.5 10 0 11.5 0 13.3333V21.6667C0 24.4167 2.25 26.6667 5 26.6667V28.3333C5 29.25 5.75 30 6.66667 30C7.58333 30 8.33333 29.25 8.33333 28.3333V26.6667H28.3333V28.3333C28.3333 29.25 29.0833 30 30 30C30.9167 30 31.6667 29.25 31.6667 28.3333V26.6667C34.4167 26.6667 36.6667 24.4167 36.6667 21.6667V13.3333C36.6667 11.5 35.1667 10 33.3333 10Z" fill="black"/>
<path d="M10 13.3333V16.6667H26.6667V13.3333C26.6667 10.2333 28.8 7.65 31.6667 6.9V5C31.6667 2.25 29.4167 0 26.6667 0H10C7.25 0 5 2.25 5 5V6.9C7.86667 7.65 10 10.2333 10 13.3333Z" fill="black"/>
</svg>
