<svg width="84" height="84" viewBox="0 0 84 84" fill="none" xmlns="http://www.w3.org/2000/svg">
<g filter="url(#filter0_d_160_2103)">
<circle cx="42" cy="42" r="32" fill="#64B161"/>
<path d="M54.2932 29.5512C51.0107 26.2608 46.6393 24.4512 41.9937 24.4512C32.4047 24.4512 24.602 32.2539 24.602 41.8429C24.602 44.906 25.4011 47.8986 26.9209 50.5387L24.4531 59.5479L33.6739 57.1272C36.2121 58.5138 39.0716 59.2424 41.9858 59.2424H41.9937C51.5748 59.2424 59.5499 51.4396 59.5499 41.8507C59.5499 37.2051 57.5757 32.8415 54.2932 29.5512ZM41.9937 56.3125C39.3928 56.3125 36.8467 55.6152 34.6296 54.2991L34.1047 53.9857L28.6365 55.4194L30.0937 50.0844L29.749 49.536C28.2997 47.2327 27.5398 44.577 27.5398 41.8429C27.5398 33.8756 34.0264 27.389 42.0015 27.389C45.8637 27.389 49.4909 28.8931 52.2172 31.6272C54.9434 34.3613 56.6199 37.9885 56.6121 41.8507C56.6121 49.8258 49.961 56.3125 41.9937 56.3125ZM49.9218 45.4857C49.4909 45.2664 47.3522 44.2166 46.9527 44.0756C46.5531 43.9267 46.2633 43.8562 45.9734 44.2949C45.6835 44.7337 44.8531 45.7051 44.5946 46.0028C44.3439 46.2926 44.0854 46.3318 43.6545 46.1125C41.1006 44.8355 39.4241 43.8327 37.7398 40.942C37.2932 40.1742 38.1863 40.2291 39.0167 38.5682C39.1577 38.2784 39.0872 38.0277 38.9775 37.8083C38.8679 37.589 37.9983 35.4502 37.6379 34.5807C37.2854 33.7346 36.925 33.8521 36.6587 33.8364C36.408 33.8208 36.1181 33.8208 35.8282 33.8208C35.5384 33.8208 35.0683 33.9304 34.6688 34.3613C34.2693 34.8 33.149 35.8498 33.149 37.9885C33.149 40.1272 34.708 42.1954 34.9195 42.4853C35.1388 42.7751 37.9826 47.1622 42.3462 49.0502C45.1038 50.241 46.1849 50.3429 47.5637 50.1392C48.402 50.0138 50.1333 49.0894 50.4937 48.071C50.854 47.0526 50.854 46.183 50.7444 46.0028C50.6425 45.8069 50.3527 45.6973 49.9218 45.4857Z" fill="white"/>
</g>
<defs>
<filter id="filter0_d_160_2103" x="0" y="0" width="84" height="84" filterUnits="userSpaceOnUse" color-interpolation-filters="sRGB">
<feFlood flood-opacity="0" result="BackgroundImageFix"/>
<feColorMatrix in="SourceAlpha" type="matrix" values="0 0 0 0 0 0 0 0 0 0 0 0 0 0 0 0 0 0 127 0" result="hardAlpha"/>
<feOffset/>
<feGaussianBlur stdDeviation="5"/>
<feComposite in2="hardAlpha" operator="out"/>
<feColorMatrix type="matrix" values="0 0 0 0 0 0 0 0 0 0 0 0 0 0 0 0 0 0 0.1 0"/>
<feBlend mode="normal" in2="BackgroundImageFix" result="effect1_dropShadow_160_2103"/>
<feBlend mode="normal" in="SourceGraphic" in2="effect1_dropShadow_160_2103" result="shape"/>
</filter>
</defs>
</svg>
