<svg width="33" height="30" viewBox="0 0 33 30" fill="none" xmlns="http://www.w3.org/2000/svg">
<path d="M2.98189 30V27H14.9819V30H2.98189ZM23.9819 28.5C23.1569 28.5 22.4509 28.2065 21.8639 27.6195C21.2759 27.0315 20.9819 26.325 20.9819 25.5H16.4819C16.0569 25.5 15.7009 25.356 15.4139 25.068C15.1259 24.781 14.9819 24.425 14.9819 24C14.9319 21.75 15.6319 19.8 17.0819 18.15C18.5319 16.5 20.3319 15.5 22.4819 15.15V0H25.4819V15.15C27.6569 15.5 29.4634 16.5 30.9014 18.15C32.3384 19.8 33.0319 21.75 32.9819 24C32.9819 24.425 32.8379 24.781 32.5499 25.068C32.2629 25.356 31.9069 25.5 31.4819 25.5H26.9819C26.9819 26.325 26.6944 27.0315 26.1194 27.6195C25.5444 28.2065 24.8319 28.5 23.9819 28.5ZM7.48189 25.5V13.5H1.48189C0.981887 13.5 0.587887 13.3065 0.299887 12.9195C0.0128872 12.5315 -0.0681129 12.1 0.0568871 11.625L2.86939 1.125C2.96939 0.8 3.15089 0.531 3.41389 0.318C3.67589 0.106 3.98189 0 4.33189 0H13.6694C14.0194 0 14.3259 0.106 14.5889 0.318C14.8509 0.531 15.0319 0.8 15.1319 1.125L17.9444 11.625C18.0694 12.1 17.9879 12.5315 17.6999 12.9195C17.4129 13.3065 17.0194 13.5 16.5194 13.5H10.4819V25.5H7.48189Z" fill="black"/>
</svg>
