<svg width="22" height="30" viewBox="0 0 22 30" fill="none" xmlns="http://www.w3.org/2000/svg">
<path d="M10.5533 5.99973C12.219 5.99973 13.5694 4.65665 13.5694 2.99987C13.5694 1.34309 12.219 0 10.5533 0C8.88749 0 7.53711 1.34309 7.53711 2.99987C7.53711 4.65665 8.88749 5.99973 10.5533 5.99973Z" fill="black"/>
<path d="M21.1111 16.5V13.5001C18.7887 13.5301 16.4512 12.3751 14.9732 10.7552L13.0278 8.61031C12.7715 8.32532 12.4548 8.10033 12.1079 7.93534C12.0928 7.93534 12.0928 7.92034 12.0777 7.92034H12.0627C11.5047 7.60536 10.8864 7.45536 10.1776 7.54536C8.63933 7.72535 7.53844 9.10529 7.53844 10.6502V22.4997H18.095V29.9994H21.1111V18.7499H13.5707V13.5751C15.5162 15.18 18.472 16.485 21.1111 16.5ZM11.8063 23.9996C11.188 25.7395 9.51402 26.9995 7.53844 26.9995C5.03504 26.9995 3.01422 24.9896 3.01422 22.4997C3.01422 20.5348 4.281 18.8849 6.03036 18.2549V15.15C4.69585 15.4213 3.46015 16.0471 2.45452 16.9608C1.4489 17.8746 0.710905 19.0422 0.318944 20.3396C-0.0730176 21.6371 -0.104308 23.0159 0.228396 24.3296C0.5611 25.6433 1.24537 26.8429 2.20852 27.8008C3.17168 28.7588 4.37773 29.4394 5.69858 29.7703C7.01942 30.1012 8.40572 30.0701 9.71021 29.6802C11.0147 29.2904 12.1886 28.5564 13.1074 27.5562C14.0261 26.556 14.6552 25.3269 14.928 23.9996H11.8063Z" fill="black"/>
</svg>
