<svg width="33" height="30" viewBox="0 0 33 30" fill="none" xmlns="http://www.w3.org/2000/svg">
<path d="M32.1429 15C32.1429 15.2842 32.03 15.5567 31.829 15.7576C31.6281 15.9585 31.3556 16.0714 31.0714 16.0714H28.8388C28.5836 17.5685 27.8075 18.9272 26.6476 19.9074C25.4877 20.8877 24.0187 21.4265 22.5 21.4286H17.1429V24.6429H20.3571C21.4938 24.6429 22.5839 25.0944 23.3876 25.8981C24.1913 26.7018 24.6429 27.7919 24.6429 28.9286C24.6429 29.2127 24.53 29.4853 24.329 29.6862C24.1281 29.8871 23.8556 30 23.5714 30C23.2873 30 23.0147 29.8871 22.8138 29.6862C22.6129 29.4853 22.5 29.2127 22.5 28.9286C22.5 28.3602 22.2742 27.8152 21.8724 27.4133C21.4705 27.0115 20.9255 26.7857 20.3571 26.7857H17.1429V28.9286C17.1429 29.2127 17.03 29.4853 16.829 29.6862C16.6281 29.8871 16.3556 30 16.0714 30C15.7873 30 15.5147 29.8871 15.3138 29.6862C15.1129 29.4853 15 29.2127 15 28.9286V26.7857H11.7857C11.2174 26.7857 10.6723 27.0115 10.2705 27.4133C9.86862 27.8152 9.64286 28.3602 9.64286 28.9286C9.64286 29.2127 9.52997 29.4853 9.32904 29.6862C9.12811 29.8871 8.85559 30 8.57143 30C8.28727 30 8.01475 29.8871 7.81381 29.6862C7.61288 29.4853 7.5 29.2127 7.5 28.9286C7.5 27.7919 7.95153 26.7018 8.75526 25.8981C9.55898 25.0944 10.6491 24.6429 11.7857 24.6429H15V21.4286H9.64286C8.1242 21.4265 6.65516 20.8877 5.49525 19.9074C4.33535 18.9272 3.55923 17.5685 3.30402 16.0714H1.07143C0.787268 16.0714 0.514746 15.9585 0.313814 15.7576C0.112882 15.5567 0 15.2842 0 15C0 14.7158 0.112882 14.4433 0.313814 14.2424C0.514746 14.0415 0.787268 13.9286 1.07143 13.9286H4.28571C4.56987 13.9286 4.8424 14.0415 5.04333 14.2424C5.24426 14.4433 5.35714 14.7158 5.35714 15C5.35714 16.1366 5.80867 17.2267 6.6124 18.0305C7.41613 18.8342 8.50622 19.2857 9.64286 19.2857H22.5C23.6366 19.2857 24.7267 18.8342 25.5305 18.0305C26.3342 17.2267 26.7857 16.1366 26.7857 15C26.7857 14.7158 26.8986 14.4433 27.0995 14.2424C27.3005 14.0415 27.573 13.9286 27.8571 13.9286H31.0714C31.3556 13.9286 31.6281 14.0415 31.829 14.2424C32.03 14.4433 32.1429 14.7158 32.1429 15ZM9.64286 17.1429H22.5C22.807 17.1429 23.1104 17.0769 23.3897 16.9495C23.6689 16.822 23.9176 16.6361 24.1187 16.4042C24.3199 16.1723 24.4689 15.8999 24.5556 15.6054C24.6423 15.3109 24.6648 15.0012 24.6214 14.6973L22.7839 1.84018C22.7089 1.33038 22.4537 0.864371 22.0644 0.526731C21.6752 0.189091 21.1778 0.00220626 20.6625 0H11.4804C10.9651 0.00220626 10.4677 0.189091 10.0784 0.526731C9.68919 0.864371 9.43391 1.33038 9.35893 1.84018L7.52143 14.6973C7.47807 15.0012 7.50051 15.3109 7.58724 15.6054C7.67396 15.8999 7.82295 16.1723 8.02411 16.4042C8.22527 16.6361 8.47391 16.822 8.75319 16.9495C9.03247 17.0769 9.33587 17.1429 9.64286 17.1429Z" fill="black"/>
</svg>
