<svg width="35" height="35" viewBox="0 0 35 35" fill="none" xmlns="http://www.w3.org/2000/svg">
<g clip-path="url(#clip0_138_2143)">
<path d="M8.87509 34.8762C6.79362 34.7816 5.66291 34.4352 4.91084 34.1418C3.91432 33.7538 3.20385 33.292 2.45594 32.5451C1.70803 31.7982 1.24513 31.0878 0.859215 30.0912C0.565875 29.3392 0.219485 28.2085 0.124825 26.127C0.0208042 23.877 0 23.2019 0 17.5016C0 11.8012 0.0228847 11.1271 0.123785 8.87509C0.218444 6.79362 0.566915 5.66499 0.858175 4.91084C1.24617 3.91432 1.70907 3.20385 2.4549 2.4549C3.20177 1.70803 3.91224 1.24409 4.9098 0.858175C5.66187 0.564835 6.79258 0.218444 8.87404 0.123785C11.1251 0.0208042 11.8012 0 17.4995 0C23.1998 0 23.8739 0.0228847 26.126 0.123785C28.2074 0.218444 29.336 0.566915 30.0902 0.858175C31.0867 1.24409 31.7972 1.70803 32.5451 2.4549C33.293 3.20177 33.7538 3.91328 34.1418 4.9098C34.4352 5.66187 34.7816 6.79258 34.8762 8.87404C34.9792 11.1261 35 11.8002 35 17.5005C35 23.1988 34.9792 23.8749 34.8762 26.127C34.7816 28.2085 34.4331 29.3392 34.1418 30.0912C33.7538 31.0878 33.292 31.7982 32.5451 32.5451C31.7982 33.292 31.0867 33.7538 30.0902 34.1418C29.3381 34.4352 28.2074 34.7816 26.126 34.8762C23.876 34.9792 23.1998 35 17.4995 35C11.8012 35 11.1251 34.9802 8.87509 34.8762Z" fill="#FF916E"/>
<path d="M8.87509 34.8762C6.79362 34.7816 5.66291 34.4352 4.91084 34.1418C3.91432 33.7538 3.20385 33.292 2.45594 32.5451C1.70803 31.7982 1.24513 31.0878 0.859215 30.0912C0.565875 29.3392 0.219485 28.2085 0.124825 26.127C0.0208042 23.877 0 23.2019 0 17.5016C0 11.8012 0.0228847 11.1271 0.123785 8.87509C0.218444 6.79362 0.566915 5.66499 0.858175 4.91084C1.24617 3.91432 1.70907 3.20385 2.4549 2.4549C3.20177 1.70803 3.91224 1.24409 4.9098 0.858175C5.66187 0.564835 6.79258 0.218444 8.87404 0.123785C11.1251 0.0208042 11.8012 0 17.4995 0C23.1998 0 23.8739 0.0228847 26.126 0.123785C28.2074 0.218444 29.336 0.566915 30.0902 0.858175C31.0867 1.24409 31.7972 1.70803 32.5451 2.4549C33.293 3.20177 33.7538 3.91328 34.1418 4.9098C34.4352 5.66187 34.7816 6.79258 34.8762 8.87404C34.9792 11.1261 35 11.8002 35 17.5005C35 23.1988 34.9792 23.8749 34.8762 26.127C34.7816 28.2085 34.4331 29.3392 34.1418 30.0912C33.7538 31.0878 33.292 31.7982 32.5451 32.5451C31.7982 33.292 31.0867 33.7538 30.0902 34.1418C29.3381 34.4352 28.2074 34.7816 26.126 34.8762C23.876 34.9792 23.1998 35 17.4995 35C11.8012 35 11.1251 34.9802 8.87509 34.8762Z" fill="#FF916E"/>
<path d="M13.2043 17.5749C13.2043 15.1813 15.1442 13.2403 17.5378 13.2403C19.9314 13.2403 21.8724 15.1813 21.8724 17.5749C21.8724 19.9685 19.9314 21.9095 17.5378 21.9095C15.1442 21.9095 13.2043 19.9685 13.2043 17.5749ZM10.8611 17.5749C10.8611 21.2625 13.8503 24.2516 17.5378 24.2516C21.2254 24.2516 24.2145 21.2625 24.2145 17.5749C24.2145 13.8874 21.2254 10.8982 17.5378 10.8982C13.8503 10.8982 10.8612 13.8872 10.8612 17.5749M22.9186 10.6335C22.9185 10.9421 23.0099 11.2438 23.1812 11.5004C23.3526 11.7571 23.5962 11.9572 23.8812 12.0754C24.1663 12.1936 24.48 12.2246 24.7827 12.1646C25.0854 12.1045 25.3635 11.956 25.5818 11.7379C25.8001 11.5197 25.9488 11.2418 26.0091 10.9391C26.0695 10.6365 26.0387 10.3227 25.9207 10.0376C25.8027 9.75241 25.6028 9.50864 25.3463 9.33709C25.0898 9.16554 24.7882 9.07391 24.4795 9.07378H24.4789C24.0653 9.07397 23.6686 9.23834 23.376 9.53078C23.0835 9.82322 22.919 10.2198 22.9186 10.6335ZM12.2847 28.1589C11.017 28.1011 10.328 27.89 9.87009 27.7116C9.26302 27.4752 8.82988 27.1937 8.37447 26.739C7.91907 26.2842 7.63717 25.8515 7.40188 25.2444C7.22338 24.7867 7.01221 24.0975 6.95458 22.8297C6.89155 21.4592 6.87896 21.0474 6.87896 17.5751C6.87896 14.1028 6.89259 13.6922 6.95458 12.3205C7.01232 11.0528 7.22504 10.3649 7.40188 9.90585C7.63821 9.29878 7.91969 8.86563 8.37447 8.41023C8.82925 7.95483 9.26198 7.67293 9.87009 7.43763C10.3278 7.25913 11.017 7.04797 12.2847 6.99034C13.6553 6.9273 14.067 6.91472 17.5378 6.91472C21.0086 6.91472 21.4207 6.92814 22.7924 6.99055C24.0601 7.04828 24.748 7.261 25.2071 7.43784C25.8141 7.67314 26.2473 7.95566 26.7027 8.41044C27.1581 8.86522 27.4389 9.29899 27.6753 9.90605C27.8538 10.3637 28.0649 11.053 28.1226 12.3207C28.1856 13.6924 28.1982 14.103 28.1982 17.5753C28.1982 21.0477 28.1856 21.4582 28.1226 22.83C28.0648 24.0977 27.8526 24.7867 27.6753 25.2446C27.4389 25.8517 27.1575 26.2848 26.7027 26.7392C26.2479 27.1935 25.8141 27.4754 25.2071 27.7118C24.7494 27.8903 24.0601 28.1014 22.7924 28.1591C21.4218 28.2221 21.0101 28.2347 17.5378 28.2347C14.0655 28.2347 13.6549 28.2221 12.2847 28.1591M12.1771 4.65101C10.7929 4.71405 9.847 4.93353 9.02096 5.25496C8.16602 5.58689 7.4413 6.0322 6.71762 6.75473C5.99395 7.47726 5.54978 8.20208 5.21785 9.05807C4.89642 9.88463 4.67694 10.83 4.6139 12.2142C4.54982 13.6006 4.53516 14.0438 4.53516 17.5749C4.53516 21.106 4.54982 21.5492 4.6139 22.9356C4.67694 24.32 4.89642 25.2652 5.21785 26.0917C5.54978 26.9467 5.99405 27.6729 6.71762 28.3951C7.4412 29.1173 8.16497 29.562 9.02096 29.8949C9.84856 30.2163 10.7929 30.4358 12.1771 30.4988C13.5642 30.5618 14.0067 30.5776 17.5378 30.5776C21.0689 30.5776 21.5121 30.5629 22.8985 30.4988C24.2828 30.4358 25.2281 30.2163 26.0546 29.8949C26.9096 29.562 27.6343 29.1176 28.358 28.3951C29.0817 27.6726 29.5249 26.9467 29.8578 26.0917C30.1792 25.2652 30.3997 24.3199 30.4617 22.9356C30.5247 21.5482 30.5394 21.106 30.5394 17.5749C30.5394 14.0438 30.5247 13.6006 30.4617 12.2142C30.3987 10.8299 30.1792 9.88411 29.8578 9.05807C29.5249 8.20312 29.0805 7.47841 28.358 6.75473C27.6354 6.03106 26.9096 5.58689 26.0557 5.25496C25.2281 4.93353 24.2827 4.71301 22.8996 4.65101C21.513 4.58766 21.0699 4.57227 17.5394 4.57227C14.0088 4.57227 13.5647 4.58693 12.1776 4.65101" fill="black"/>
</g>
<defs>
<clipPath id="clip0_138_2143">
<rect width="35" height="35" fill="white"/>
</clipPath>
</defs>
</svg>
