<svg width="24" height="24" viewBox="0 0 24 24" fill="none" xmlns="http://www.w3.org/2000/svg">
<path d="M23.0078 17.7628L20.6115 15.3665C20.1778 14.9331 19.6346 14.6254 19.0399 14.4765C18.4451 14.3275 17.821 14.3428 17.2342 14.5206C16.6474 14.6985 16.1199 15.0323 15.7079 15.4864C15.296 15.9406 15.015 16.498 14.895 17.0993C10.9434 16.3604 7.10016 12.5329 6.86094 9.1119C7.53272 8.98832 8.15097 8.66318 8.63348 8.1797C9.26878 7.54432 9.62568 6.6826 9.62568 5.7841C9.62568 4.88559 9.26878 4.02387 8.63348 3.38849L6.23788 0.9922C5.60249 0.356901 4.74078 0 3.84227 0C2.94376 0 2.08205 0.356901 1.44667 0.9922C-5.74083 8.1797 15.8203 29.7408 23.0078 22.5533C23.6427 21.9179 23.9994 21.0564 23.9994 20.1581C23.9994 19.2598 23.6427 18.3983 23.0078 17.7628Z" fill="black"/>
</svg>
