<svg width="35" height="35" viewBox="0 0 35 35" fill="none" xmlns="http://www.w3.org/2000/svg">
<g clip-path="url(#clip0_138_1685)">
<path d="M17.5 34.9898C14.0784 34.9904 10.7319 33.9859 7.87611 32.1013L1.15174 34.2494L3.33158 27.7525C1.16124 24.7754 -0.00556909 21.185 1.99856e-05 17.5008C1.99856e-05 7.85609 7.84549 0.0117188 17.4891 0.0117188C27.1327 0.0117188 34.9781 7.85609 34.9781 17.5008C34.9781 27.1455 27.136 34.9898 17.4891 34.9898H17.5Z" fill="#FEFEFE"/>
<path d="M17.4896 0C7.84492 0 0 7.84521 0 17.4896C0 21.3142 1.23388 24.8618 3.33135 27.741L1.15117 34.2398L7.87278 32.0909C10.6383 33.9211 13.9391 34.98 17.4968 34.98C27.1415 34.98 34.9864 27.1345 34.9864 17.4905C34.9864 7.84637 27.1412 0.000870083 17.4968 0.000870083H17.4867L17.4896 0Z" fill="#FF916E"/>
<path d="M12.615 8.89492C12.2869 8.08227 12.0189 8.05273 11.5048 8.01992L10.9186 7.99805C10.2514 7.99805 9.55141 8.19492 9.12922 8.62477C8.61516 9.14977 7.33984 10.3726 7.33984 12.8816C7.33984 15.3907 9.16969 17.8166 9.41797 18.1568C9.675 18.4849 12.9858 23.7196 18.1275 25.848C22.1481 27.5138 23.3403 27.3596 24.2558 27.1638C25.5923 26.8762 27.268 25.8885 27.6902 24.6963C28.1123 23.5041 28.1123 22.487 27.9877 22.2682C27.863 22.0495 27.525 21.9401 27.0109 21.6721C26.4969 21.4041 23.9988 20.1813 23.5252 20.0162C23.0625 19.8412 22.6206 19.9035 22.2706 20.3968C21.7784 21.0859 21.2939 21.7859 20.9034 22.2059C20.595 22.534 20.0908 22.5777 19.6697 22.4027C19.1042 22.1665 17.5205 21.6109 15.5681 19.8729C14.0566 18.5276 13.0284 16.8498 12.7298 16.3466C12.4313 15.8326 12.6992 15.534 12.9355 15.2562C13.1925 14.9368 13.4386 14.7115 13.6967 14.414C13.9548 14.1165 14.0981 13.9612 14.2622 13.6123C14.4372 13.2841 14.3136 12.9232 14.19 12.6662C14.0664 12.4091 13.0383 9.89898 12.6172 8.8818L12.615 8.89492Z" fill="black"/>
</g>
<defs>
<clipPath id="clip0_138_1685">
<rect width="35" height="35" fill="white"/>
</clipPath>
</defs>
</svg>
