<svg width="173" height="39" viewBox="0 0 173 39" fill="none" xmlns="http://www.w3.org/2000/svg">
<rect width="173" height="38.3476" fill="black"/>
<path d="M52.5294 30V7.81543H60.2854C61.8308 7.81543 63.1054 8.08263 64.1092 8.61702C65.113 9.1442 65.8604 9.85552 66.3515 10.751C66.8425 11.6392 67.0881 12.625 67.0881 13.7082C67.0881 14.6615 66.9184 15.4486 66.579 16.0697C66.2468 16.6907 65.8062 17.1818 65.2574 17.5428C64.7158 17.9039 64.1272 18.1711 63.4917 18.3444V18.5611C64.1706 18.6044 64.853 18.8427 65.5391 19.276C66.2251 19.7093 66.7992 20.3304 67.2614 21.1392C67.7236 21.948 67.9547 22.9373 67.9547 24.1072C67.9547 25.2193 67.7019 26.2195 67.1964 27.1078C66.6909 27.996 65.8929 28.7001 64.8025 29.2201C63.712 29.74 62.293 30 60.5454 30H52.5294ZM55.2159 27.6169H60.5454C62.3002 27.6169 63.5459 27.2775 64.2825 26.5987C65.0263 25.9126 65.3982 25.0821 65.3982 24.1072C65.3982 23.3562 65.2069 22.6629 64.8241 22.0274C64.4414 21.3847 63.8962 20.872 63.1884 20.4892C62.4807 20.0993 61.643 19.9043 60.6753 19.9043H55.2159V27.6169ZM55.2159 17.5645H60.1987C61.0075 17.5645 61.7369 17.4056 62.3868 17.0879C63.044 16.7701 63.564 16.3224 63.9467 15.7447C64.3367 15.167 64.5316 14.4881 64.5316 13.7082C64.5316 12.7333 64.1922 11.9064 63.5134 11.2276C62.8346 10.5416 61.7586 10.1985 60.2854 10.1985H55.2159V17.5645ZM73.225 7.81543V30H70.5386V7.81543H73.225ZM75.5679 10.1985V7.81543H92.2064V10.1985H85.2303V30H82.5439V10.1985H75.5679ZM114.769 30V7.81543H122.525C124.07 7.81543 125.345 8.08263 126.349 8.61702C127.353 9.1442 128.1 9.85552 128.591 10.751C129.082 11.6392 129.328 12.625 129.328 13.7082C129.328 14.6615 129.158 15.4486 128.819 16.0697C128.486 16.6907 128.046 17.1818 127.497 17.5428C126.955 17.9039 126.367 18.1711 125.731 18.3444V18.5611C126.41 18.6044 127.093 18.8427 127.779 19.276C128.465 19.7093 129.039 20.3304 129.501 21.1392C129.963 21.948 130.194 22.9373 130.194 24.1072C130.194 25.2193 129.942 26.2195 129.436 27.1078C128.931 27.996 128.133 28.7001 127.042 29.2201C125.952 29.74 124.533 30 122.785 30H114.769ZM117.455 27.6169H122.785C124.54 27.6169 125.786 27.2775 126.522 26.5987C127.266 25.9126 127.638 25.0821 127.638 24.1072C127.638 23.3562 127.446 22.6629 127.064 22.0274C126.681 21.3847 126.136 20.872 125.428 20.4892C124.72 20.0993 123.883 19.9043 122.915 19.9043H117.455V27.6169ZM117.455 17.5645H122.438C123.247 17.5645 123.977 17.4056 124.626 17.0879C125.284 16.7701 125.804 16.3224 126.186 15.7447C126.576 15.167 126.771 14.4881 126.771 13.7082C126.771 12.7333 126.432 11.9064 125.753 11.2276C125.074 10.5416 123.998 10.1985 122.525 10.1985H117.455V17.5645ZM132.778 30V7.81543H135.465V27.6169H145.777V30H132.778ZM148.106 30V7.81543H161.495V10.1985H150.793V17.6945H160.802V20.0776H150.793V27.6169H161.668V30H148.106Z" fill="white"/>
<path d="M39.4367 7.4082L31.375 29.6324H34.2075L40.744 10.8943H40.9619L47.4984 29.6324H50.3309L42.2692 7.4082H39.4367Z" fill="white" stroke="white" stroke-width="0.217884"/>
<path d="M100.445 7.4082L92.3828 29.6324H95.2153L101.752 10.8943H101.97L108.506 29.6324H111.339L103.277 7.4082H100.445Z" fill="white" stroke="white" stroke-width="0.217884"/>
<rect x="24.3926" y="7.125" width="4.27524" height="6.47764" fill="#FF916E"/>
<rect x="11.5664" y="23.3203" width="4.27524" height="6.47764" fill="#FF916E"/>
<rect x="11.5664" y="7.125" width="4.27524" height="13.3439" fill="#FF916E"/>
<rect x="24.3926" y="16.4531" width="4.27524" height="13.3439" fill="#FF916E"/>
<rect x="28.668" y="16.3242" width="4.27524" height="17.101" transform="rotate(90 28.668 16.3242)" fill="#FF916E"/>
</svg>
